<svg version="1.1" viewBox="0.0 0.0 1024.0 768.0" fill="none" stroke="none" stroke-linecap="square" stroke-miterlimit="10" xmlns:xlink="http://www.w3.org/1999/xlink" xmlns="http://www.w3.org/2000/svg"><clipPath id="p.0"><path d="m0 0l1024.0 0l0 768.0l-1024.0 0l0 -768.0z" clip-rule="nonzero"/></clipPath><g clip-path="url(#p.0)"><path fill="#000000" fill-opacity="0.0" d="m0 0l1024.0 0l0 768.0l-1024.0 0z" fill-rule="evenodd"/><path fill="#000000" fill-opacity="0.0" d="m92.03674 128.85301l161.5748 0l0 67.87402l-161.5748 0z" fill-rule="evenodd"/><path fill="#3dc50d" d="m119.83362 149.15927l0.203125 8.828125l-0.796875 0q-0.5625 -3.3125 -2.78125 -5.328125q-2.21875 -2.03125 -4.796875 -2.03125q-1.984375 0 -3.15625 1.0625q-1.15625 1.0625 -1.15625 2.453125q0 0.875 0.40625 1.5625q0.5625 0.921875 1.8125 1.8125q0.921875 0.640625 4.25 2.28125q4.640625 2.296875 6.265625 4.328125q1.59375 2.03125 1.59375 4.640625q0 3.328125 -2.59375 5.71875q-2.578125 2.390625 -6.5625 2.390625q-1.25 0 -2.359375 -0.25q-1.109375 -0.25 -2.796875 -0.96875q-0.9375 -0.390625 -1.546875 -0.390625q-0.5 0 -1.078125 0.390625q-0.5625 0.390625 -0.90625 1.203125l-0.71875 0l0 -10.0l0.71875 0q0.859375 4.21875 3.3125 6.4375q2.453125 2.203125 5.28125 2.203125q2.1875 0 3.484375 -1.1875q1.296875 -1.1875 1.296875 -2.765625q0 -0.9375 -0.5 -1.8125q-0.5 -0.890625 -1.515625 -1.671875q-1.015625 -0.796875 -3.59375 -2.0625q-3.609375 -1.78125 -5.1875 -3.03125q-1.578125 -1.25 -2.4375 -2.796875q-0.84375 -1.546875 -0.84375 -3.390625q0 -3.171875 2.3125 -5.390625q2.328125 -2.234375 5.875 -2.234375q1.28125 0 2.5 0.3125q0.90625 0.234375 2.21875 0.875q1.328125 0.625 1.859375 0.625q0.5 0 0.796875 -0.3125q0.296875 -0.3125 0.546875 -1.5l0.59375 0zm22.433594 8.828125l0 14.296875q0 2.09375 0.390625 2.609375q0.390625 0.515625 1.578125 0.65625l0 0.703125l-7.4375 0l0 -2.4375q-1.3125 1.5625 -2.625 2.28125q-1.296875 0.703125 -2.921875 0.703125q-1.546875 0 -2.75 -0.9375q-1.1875 -0.953125 -1.609375 -2.21875q-0.40625 -1.28125 -0.40625 -4.4375l0 -7.25q0 -2.078125 -0.390625 -2.578125q-0.375 -0.515625 -1.578125 -0.671875l0 -0.71875l7.4375 0l0 12.484375q0 1.953125 0.1875 2.515625q0.1875 0.5625 0.578125 0.859375q0.40625 0.296875 0.9375 0.296875q0.703125 0 1.265625 -0.375q0.78125 -0.5 1.875 -2.046875l0 -9.765625q0 -2.078125 -0.390625 -2.578125q-0.375 -0.515625 -1.578125 -0.671875l0 -0.71875l7.4375 0zm11.683594 -8.21875l0 10.0625q2.296875 -2.390625 5.03125 -2.390625q1.875 0 3.53125 1.109375q1.671875 1.09375 2.609375 3.125q0.9375 2.03125 0.9375 4.6875q0 3.0 -1.203125 5.4375q-1.1875 2.4375 -3.1875 3.71875q-1.984375 1.28125 -4.53125 1.28125q-1.484375 0 -2.640625 -0.46875q-1.15625 -0.46875 -2.265625 -1.53125l-3.03125 1.984375l-0.65625 0l0 -23.234375q0 -1.578125 -0.140625 -1.953125q-0.203125 -0.546875 -0.625 -0.796875q-0.40625 -0.265625 -1.40625 -0.3125l0 -0.71875l7.578125 0zm0 11.796875l0 8.125q0 2.484375 0.109375 3.15625q0.203125 1.15625 0.9375 1.875q0.75 0.703125 1.90625 0.703125q0.984375 0 1.703125 -0.5625q0.71875 -0.5625 1.1875 -2.234375q0.484375 -1.6875 0.484375 -6.0625q0 -4.203125 -1.0625 -5.765625q-0.75 -1.125 -2.046875 -1.125q-1.671875 0 -3.21875 1.890625zm20.777344 -12.40625q1.25 0 2.109375 0.875q0.875 0.859375 0.875 2.09375q0 1.25 -0.875 2.140625q-0.875 0.875 -2.109375 0.875q-1.234375 0 -2.109375 -0.875q-0.875 -0.890625 -0.875 -2.140625q0 -1.234375 0.859375 -2.09375q0.875 -0.875 2.125 -0.875zm2.734375 8.828125l0 18.90625q0 2.65625 -0.328125 3.9375q-0.484375 1.828125 -1.953125 2.9375q-1.453125 1.125 -3.828125 1.125q-2.40625 0 -3.546875 -0.984375q-1.140625 -0.96875 -1.140625 -2.359375q0 -0.859375 0.59375 -1.5q0.59375 -0.625 1.390625 -0.625q0.75 0 1.171875 0.4375q0.4375 0.4375 0.4375 1.3125q0 0.234375 -0.015625 0.546875q-0.046875 0.40625 -0.046875 0.5625q0 0.6875 0.3125 1.015625q0.3125 0.34375 0.796875 0.34375q0.453125 0 0.765625 -0.390625q0.328125 -0.390625 0.328125 -1.125q0 -0.390625 -0.109375 -1.578125q-0.203125 -2.171875 -0.21875 -2.609375l-0.0625 -4.640625l0 -11.28125l0.03125 -1.015625q0 -1.234375 -0.421875 -1.6875q-0.421875 -0.46875 -1.765625 -0.609375l0 -0.71875l7.609375 0zm20.445312 8.484375l-10.015625 0q0.171875 3.625 1.9375 5.734375q1.34375 1.625 3.234375 1.625q1.171875 0 2.125 -0.65625q0.96875 -0.65625 2.0625 -2.359375l0.65625 0.4375q-1.484375 3.03125 -3.28125 4.296875q-1.796875 1.25 -4.15625 1.25q-4.0625 0 -6.15625 -3.125q-1.671875 -2.515625 -1.671875 -6.25q0 -4.578125 2.46875 -7.28125q2.46875 -2.703125 5.796875 -2.703125q2.765625 0 4.796875 2.28125q2.046875 2.265625 2.203125 6.75zm-4.796875 -1.3125q0 -3.140625 -0.34375 -4.3125q-0.34375 -1.171875 -1.0625 -1.78125q-0.40625 -0.359375 -1.09375 -0.359375q-1.015625 0 -1.65625 1.0q-1.15625 1.734375 -1.15625 4.765625l0 0.6875l5.3125 0zm21.988281 6.390625l0.609375 0.46875q-1.296875 2.421875 -3.21875 3.609375q-1.921875 1.171875 -4.09375 1.171875q-3.640625 0 -5.828125 -2.75q-2.1875 -2.765625 -2.1875 -6.625q0 -3.734375 1.984375 -6.5625q2.40625 -3.421875 6.625 -3.421875q2.828125 0 4.5 1.4375q1.671875 1.421875 1.671875 3.171875q0 1.109375 -0.671875 1.78125q-0.671875 0.65625 -1.765625 0.65625q-1.15625 0 -1.90625 -0.75q-0.75 -0.765625 -0.9375 -2.71875q-0.109375 -1.234375 -0.5625 -1.71875q-0.453125 -0.484375 -1.046875 -0.484375q-0.9375 0 -1.609375 0.984375q-1.015625 1.515625 -1.015625 4.609375q0 2.578125 0.8125 4.9375q0.828125 2.359375 2.25 3.5q1.078125 0.84375 2.546875 0.84375q0.953125 0 1.8125 -0.4375q0.859375 -0.453125 2.03125 -1.703125zm10.097656 -20.234375l0 6.671875l4.34375 0l0 1.9375l-4.34375 0l0 11.265625q0 1.578125 0.140625 2.046875q0.15625 0.453125 0.515625 0.734375q0.375 0.28125 0.6875 0.28125q1.28125 0 2.40625 -1.921875l0.59375 0.421875q-1.59375 3.75 -5.140625 3.75q-1.734375 0 -2.9375 -0.96875q-1.203125 -0.96875 -1.53125 -2.15625q-0.203125 -0.65625 -0.203125 -3.59375l0 -9.859375l-2.375 0l0 -0.6875q2.453125 -1.734375 4.171875 -3.640625q1.734375 -1.921875 3.03125 -4.28125l0.640625 0z" fill-rule="nonzero"/><path fill="#000000" fill-opacity="0.0" d="m397.44095 128.85301l208.97635 0l0 67.87402l-208.97635 0z" fill-rule="evenodd"/><path fill="#cc0000" d="m417.23782 164.25302l0 7.34375q0 2.15625 0.265625 2.71875q0.265625 0.546875 0.9375 0.890625q0.671875 0.328125 2.46875 0.328125l0 0.71875l-13.453125 0l0 -0.71875q1.84375 0 2.484375 -0.34375q0.65625 -0.34375 0.921875 -0.890625q0.265625 -0.546875 0.265625 -2.703125l0 -17.1875q0 -2.140625 -0.265625 -2.6875q-0.265625 -0.5625 -0.9375 -0.890625q-0.65625 -0.34375 -2.46875 -0.34375l0 -0.71875l11.546875 0q5.703125 0 8.171875 2.03125q2.484375 2.03125 2.484375 5.078125q0 2.578125 -1.609375 4.421875q-1.59375 1.828125 -4.40625 2.484375q-1.890625 0.46875 -6.40625 0.46875zm0 -12.96875l0 11.453125q0.65625 0.03125 0.984375 0.03125q2.375 0 3.65625 -1.40625q1.296875 -1.421875 1.296875 -4.390625q0 -2.953125 -1.296875 -4.3125q-1.28125 -1.375 -3.828125 -1.375l-0.8125 0zm22.558594 6.703125l0 4.140625q1.828125 -2.828125 3.1875 -3.75q1.375 -0.9375 2.640625 -0.9375q1.09375 0 1.75 0.671875q0.65625 0.671875 0.65625 1.90625q0 1.3125 -0.640625 2.03125q-0.640625 0.71875 -1.53125 0.71875q-1.03125 0 -1.796875 -0.65625q-0.765625 -0.671875 -0.90625 -0.75q-0.1875 -0.109375 -0.4375 -0.109375q-0.578125 0 -1.078125 0.421875q-0.796875 0.671875 -1.21875 1.90625q-0.625 1.890625 -0.625 4.171875l0 4.203125l0.03125 1.09375q0 1.109375 0.125 1.421875q0.234375 0.53125 0.6875 0.78125q0.46875 0.234375 1.5625 0.296875l0 0.703125l-9.859375 0l0 -0.703125q1.1875 -0.09375 1.609375 -0.65625q0.421875 -0.5625 0.421875 -2.9375l0 -10.09375q0 -1.5625 -0.15625 -2.0q-0.203125 -0.546875 -0.578125 -0.796875q-0.359375 -0.25 -1.296875 -0.359375l0 -0.71875l7.453125 0zm24.921875 8.484375l-10.015625 0q0.171875 3.625 1.9375 5.734375q1.34375 1.625 3.234375 1.625q1.171875 0 2.125 -0.65625q0.96875 -0.65625 2.0625 -2.359375l0.65625 0.4375q-1.484375 3.03125 -3.28125 4.296875q-1.796875 1.25 -4.15625 1.25q-4.0625 0 -6.15625 -3.125q-1.671875 -2.515625 -1.671875 -6.25q0 -4.578125 2.46875 -7.28125q2.46875 -2.703125 5.796875 -2.703125q2.765625 0 4.796875 2.28125q2.046875 2.265625 2.203125 6.75zm-4.796875 -1.3125q0 -3.140625 -0.34375 -4.3125q-0.34375 -1.171875 -1.0625 -1.78125q-0.40625 -0.359375 -1.09375 -0.359375q-1.015625 0 -1.65625 1.0q-1.15625 1.734375 -1.15625 4.765625l0 0.6875l5.3125 0zm24.847656 -15.390625l0 21.015625q0 2.125 0.109375 2.515625q0.15625 0.640625 0.59375 0.953125q0.4375 0.3125 1.53125 0.390625l0 0.65625l-7.703125 1.5l0 -2.890625q-1.390625 1.671875 -2.484375 2.28125q-1.078125 0.609375 -2.4375 0.609375q-3.5 0 -5.53125 -3.125q-1.640625 -2.546875 -1.640625 -6.234375q0 -2.953125 1.015625 -5.28125q1.015625 -2.328125 2.78125 -3.515625q1.765625 -1.203125 3.796875 -1.203125q1.3125 0 2.328125 0.515625q1.015625 0.5 2.171875 1.765625l0 -5.5q0 -2.09375 -0.1875 -2.515625q-0.234375 -0.578125 -0.703125 -0.84375q-0.46875 -0.28125 -1.75 -0.28125l0 -0.8125l8.109375 0zm-5.46875 12.375q-1.453125 -2.765625 -3.546875 -2.765625q-0.71875 0 -1.1875 0.390625q-0.71875 0.609375 -1.1875 2.140625q-0.453125 1.515625 -0.453125 4.65625q0 3.453125 0.5 5.125q0.515625 1.65625 1.390625 2.390625q0.453125 0.375 1.234375 0.375q1.71875 0 3.25 -2.703125l0 -9.609375zm14.355469 -13.0q1.265625 0 2.140625 0.890625q0.875 0.890625 0.875 2.140625q0 1.25 -0.890625 2.125q-0.875 0.875 -2.125 0.875q-1.25 0 -2.140625 -0.875q-0.875 -0.875 -0.875 -2.125q0 -1.25 0.875 -2.140625q0.890625 -0.890625 2.140625 -0.890625zm2.734375 8.84375l0 14.46875q0 1.9375 0.4375 2.484375q0.453125 0.53125 1.765625 0.609375l0 0.703125l-9.859375 0l0 -0.703125q1.203125 -0.046875 1.796875 -0.703125q0.390625 -0.453125 0.390625 -2.390625l0 -10.65625q0 -1.9375 -0.453125 -2.46875q-0.453125 -0.546875 -1.734375 -0.625l0 -0.71875l7.65625 0zm18.878876 13.5625l0.609375 0.46875q-1.296875 2.421875 -3.21875 3.609375q-1.9218445 1.171875 -4.0937195 1.171875q-3.640625 0 -5.828125 -2.75q-2.1875 -2.765625 -2.1875 -6.625q0 -3.734375 1.984375 -6.5625q2.40625 -3.421875 6.625 -3.421875q2.828125 0 4.4999695 1.4375q1.671875 1.421875 1.671875 3.171875q0 1.109375 -0.671875 1.78125q-0.671875 0.65625 -1.765625 0.65625q-1.1562195 0 -1.9062195 -0.75q-0.75 -0.765625 -0.9375 -2.71875q-0.109375 -1.234375 -0.5625 -1.71875q-0.453125 -0.484375 -1.046875 -0.484375q-0.9375 0 -1.609375 0.984375q-1.015625 1.515625 -1.015625 4.609375q0 2.578125 0.8125 4.9375q0.828125 2.359375 2.25 3.5q1.078125 0.84375 2.546875 0.84375q0.9530945 0 1.8124695 -0.4375q0.859375 -0.453125 2.03125 -1.703125zm12.925781 2.0q-3.328125 2.953125 -5.984375 2.953125q-1.5625 0 -2.609375 -1.015625q-1.03125 -1.03125 -1.03125 -2.578125q0 -2.09375 1.796875 -3.75q1.796875 -1.671875 7.828125 -4.453125l0 -1.828125q0 -2.078125 -0.21875 -2.609375q-0.21875 -0.546875 -0.84375 -0.9375q-0.625 -0.40625 -1.40625 -0.40625q-1.28125 0 -2.09375 0.5625q-0.515625 0.359375 -0.515625 0.828125q0 0.40625 0.546875 1.015625q0.75 0.84375 0.75 1.625q0 0.953125 -0.71875 1.625q-0.703125 0.671875 -1.859375 0.671875q-1.234375 0 -2.0625 -0.734375q-0.828125 -0.75 -0.828125 -1.75q0 -1.40625 1.109375 -2.671875q1.109375 -1.28125 3.09375 -1.96875q2.0 -0.6875 4.15625 -0.6875q2.59375 0 4.109375 1.109375q1.515625 1.09375 1.96875 2.390625q0.265625 0.8125 0.265625 3.765625l0 7.09375q0 1.25 0.09375 1.578125q0.109375 0.3125 0.296875 0.46875q0.203125 0.15625 0.453125 0.15625q0.5 0 1.03125 -0.71875l0.59375 0.46875q-0.984375 1.4375 -2.03125 2.09375q-1.046875 0.65625 -2.375 0.65625q-1.5625 0 -2.4375 -0.734375q-0.875 -0.734375 -1.078125 -2.21875zm0 -1.421875l0 -6.109375q-2.359375 1.390625 -3.515625 2.96875q-0.75 1.046875 -0.75 2.125q0 0.90625 0.640625 1.578125q0.484375 0.53125 1.359375 0.53125q0.984375 0 2.265625 -1.09375zm17.171875 -20.8125l0 6.671875l4.34375 0l0 1.9375l-4.34375 0l0 11.265625q0 1.578125 0.140625 2.046875q0.15625 0.453125 0.515625 0.734375q0.375 0.28125 0.6875 0.28125q1.28125 0 2.40625 -1.921875l0.59375 0.421875q-1.59375 3.75 -5.140625 3.75q-1.734375 0 -2.9375 -0.96875q-1.203125 -0.96875 -1.53125 -2.15625q-0.203125 -0.65625 -0.203125 -3.59375l0 -9.859375l-2.375 0l0 -0.6875q2.453125 -1.734375 4.171875 -3.640625q1.734375 -1.921875 3.03125 -4.28125l0.640625 0zm21.539062 15.15625l-10.015625 0q0.171875 3.625 1.9375 5.734375q1.34375 1.625 3.234375 1.625q1.171875 0 2.125 -0.65625q0.96875 -0.65625 2.0625 -2.359375l0.65625 0.4375q-1.484375 3.03125 -3.28125 4.296875q-1.796875 1.25 -4.15625 1.25q-4.0625 0 -6.15625 -3.125q-1.671875 -2.515625 -1.671875 -6.25q0 -4.578125 2.46875 -7.28125q2.46875 -2.703125 5.796875 -2.703125q2.765625 0 4.796875 2.28125q2.046875 2.265625 2.203125 6.75zm-4.796875 -1.3125q0 -3.140625 -0.34375 -4.3125q-0.34375 -1.171875 -1.0625 -1.78125q-0.40625 -0.359375 -1.09375 -0.359375q-1.015625 0 -1.65625 1.0q-1.15625 1.734375 -1.15625 4.765625l0 0.6875l5.3125 0z" fill-rule="nonzero"/><path fill="#000000" fill-opacity="0.0" d="m728.4147 128.85301l161.57483 0l0 67.87402l-161.57483 0z" fill-rule="evenodd"/><path fill="#1155cc" d="m752.8678 149.39365q6.328125 -0.234375 10.28125 3.703125q3.953125 3.921875 3.953125 9.8125q0 5.046875 -2.953125 8.875q-3.90625 5.078125 -11.03125 5.078125q-7.140625 0 -11.046875 -4.84375q-3.09375 -3.828125 -3.09375 -9.09375q0 -5.890625 4.015625 -9.828125q4.015625 -3.9375 9.875 -3.703125zm0.234375 1.25q-3.640625 0 -5.53125 3.71875q-1.546875 3.046875 -1.546875 8.75q0 6.765625 2.390625 10.015625q1.65625 2.265625 4.640625 2.265625q2.015625 0 3.359375 -0.984375q1.71875 -1.25 2.671875 -3.984375q0.96875 -2.75 0.96875 -7.15625q0 -5.265625 -0.984375 -7.859375q-0.96875 -2.609375 -2.484375 -3.6875q-1.515625 -1.078125 -3.484375 -1.078125zm23.847656 -0.875l0 10.0625q2.296875 -2.390625 5.03125 -2.390625q1.875 0 3.53125 1.109375q1.671875 1.09375 2.609375 3.125q0.9375 2.03125 0.9375 4.6875q0 3.0 -1.203125 5.4375q-1.1875 2.4375 -3.1875 3.71875q-1.984375 1.28125 -4.53125 1.28125q-1.484375 0 -2.640625 -0.46875q-1.15625 -0.46875 -2.265625 -1.53125l-3.03125 1.984375l-0.65625 0l0 -23.234375q0 -1.578125 -0.140625 -1.953125q-0.203125 -0.546875 -0.625 -0.796875q-0.40625 -0.265625 -1.40625 -0.3125l0 -0.71875l7.578125 0zm0 11.796875l0 8.125q0 2.484375 0.109375 3.15625q0.203125 1.15625 0.9375 1.875q0.75 0.703125 1.90625 0.703125q0.984375 0 1.703125 -0.5625q0.71875 -0.5625 1.1875 -2.234375q0.484375 -1.6875 0.484375 -6.0625q0 -4.203125 -1.0625 -5.765625q-0.75 -1.125 -2.046875 -1.125q-1.671875 0 -3.21875 1.890625zm20.777344 -12.40625q1.25 0 2.109375 0.875q0.875 0.859375 0.875 2.09375q0 1.25 -0.875 2.140625q-0.875 0.875 -2.109375 0.875q-1.234375 0 -2.109375 -0.875q-0.875 -0.890625 -0.875 -2.140625q0 -1.234375 0.859375 -2.09375q0.875 -0.875 2.125 -0.875zm2.734375 8.828125l0 18.90625q0 2.65625 -0.328125 3.9375q-0.484375 1.828125 -1.953125 2.9375q-1.453125 1.125 -3.828125 1.125q-2.40625 0 -3.546875 -0.984375q-1.140625 -0.96875 -1.140625 -2.359375q0 -0.859375 0.59375 -1.5q0.59375 -0.625 1.390625 -0.625q0.75 0 1.171875 0.4375q0.4375 0.4375 0.4375 1.3125q0 0.234375 -0.015625 0.546875q-0.046875 0.40625 -0.046875 0.5625q0 0.6875 0.3125 1.015625q0.3125 0.34375 0.796875 0.34375q0.453125 0 0.765625 -0.390625q0.328125 -0.390625 0.328125 -1.125q0 -0.390625 -0.109375 -1.578125q-0.203125 -2.171875 -0.21875 -2.609375l-0.0625 -4.640625l0 -11.28125l0.03125 -1.015625q0 -1.234375 -0.421875 -1.6875q-0.421875 -0.46875 -1.765625 -0.609375l0 -0.71875l7.609375 0zm20.445312 8.484375l-10.015625 0q0.171875 3.625 1.9375 5.734375q1.34375 1.625 3.234375 1.625q1.171875 0 2.125 -0.65625q0.96875 -0.65625 2.0625 -2.359375l0.65625 0.4375q-1.484375 3.03125 -3.28125 4.296875q-1.796875 1.25 -4.15625 1.25q-4.0625 0 -6.15625 -3.125q-1.671875 -2.515625 -1.671875 -6.25q0 -4.578125 2.46875 -7.28125q2.46875 -2.703125 5.796875 -2.703125q2.765625 0 4.796875 2.28125q2.046875 2.265625 2.203125 6.75zm-4.796875 -1.3125q0 -3.140625 -0.34375 -4.3125q-0.34375 -1.171875 -1.0625 -1.78125q-0.40625 -0.359375 -1.09375 -0.359375q-1.015625 0 -1.65625 1.0q-1.15625 1.734375 -1.15625 4.765625l0 0.6875l5.3125 0zm21.988281 6.390625l0.609375 0.46875q-1.296875 2.421875 -3.21875 3.609375q-1.921875 1.171875 -4.09375 1.171875q-3.640625 0 -5.828125 -2.75q-2.1875 -2.765625 -2.1875 -6.625q0 -3.734375 1.984375 -6.5625q2.40625 -3.421875 6.625 -3.421875q2.828125 0 4.5 1.4375q1.671875 1.421875 1.671875 3.171875q0 1.109375 -0.671875 1.78125q-0.671875 0.65625 -1.765625 0.65625q-1.15625 0 -1.90625 -0.75q-0.75 -0.765625 -0.9375 -2.71875q-0.109375 -1.234375 -0.5625 -1.71875q-0.453125 -0.484375 -1.046875 -0.484375q-0.9375 0 -1.609375 0.984375q-1.015625 1.515625 -1.015625 4.609375q0 2.578125 0.8125 4.9375q0.828125 2.359375 2.25 3.5q1.078125 0.84375 2.546875 0.84375q0.953125 0 1.8125 -0.4375q0.859375 -0.453125 2.03125 -1.703125zm10.097656 -20.234375l0 6.671875l4.34375 0l0 1.9375l-4.34375 0l0 11.265625q0 1.578125 0.140625 2.046875q0.15625 0.453125 0.515625 0.734375q0.375 0.28125 0.6875 0.28125q1.28125 0 2.40625 -1.921875l0.59375 0.421875q-1.59375 3.75 -5.140625 3.75q-1.734375 0 -2.9375 -0.96875q-1.203125 -0.96875 -1.53125 -2.15625q-0.203125 -0.65625 -0.203125 -3.59375l0 -9.859375l-2.375 0l0 -0.6875q2.453125 -1.734375 4.171875 -3.640625q1.734375 -1.921875 3.03125 -4.28125l0.640625 0z" fill-rule="nonzero"/><path fill="#ffffff" d="m64.42519 229.13408l0 0c0 -6.247757 5.0648117 -11.312561 11.312569 -11.312561l198.25677 0c3.0002747 0 5.877655 1.191864 7.999176 3.3133698c2.121521 2.121521 3.313385 4.9989166 3.313385 7.9991913l0 45.248886c0 6.247772 -5.0648193 11.312561 -11.312561 11.312561l-198.25677 0c-6.247757 0 -11.312569 -5.064789 -11.312569 -11.312561z" fill-rule="evenodd"/><path stroke="#000000" stroke-width="2.0" stroke-linejoin="round" stroke-linecap="butt" d="m64.42519 229.13408l0 0c0 -6.247757 5.0648117 -11.312561 11.312569 -11.312561l198.25677 0c3.0002747 0 5.877655 1.191864 7.999176 3.3133698c2.121521 2.121521 3.313385 4.9989166 3.313385 7.9991913l0 45.248886c0 6.247772 -5.0648193 11.312561 -11.312561 11.312561l-198.25677 0c-6.247757 0 -11.312569 -5.064789 -11.312569 -11.312561z" fill-rule="evenodd"/><path fill="#000000" fill-opacity="0.0" d="m92.03674 227.52231l182.01575 0l0 48.472443l-182.01575 0z" fill-rule="evenodd"/><path fill="#000000" d="m110.73987 254.99982l2.078125 0.265625q-0.34375 2.15625 -1.75 3.375q-1.390625 1.203125 -3.4375 1.203125q-2.546875 0 -4.109375 -1.671875q-1.546875 -1.671875 -1.546875 -4.78125q0 -2.015625 0.671875 -3.53125q0.671875 -1.515625 2.03125 -2.265625q1.359375 -0.765625 2.96875 -0.765625q2.03125 0 3.3125 1.03125q1.296875 1.03125 1.65625 2.90625l-2.046875 0.328125q-0.296875 -1.265625 -1.046875 -1.890625q-0.734375 -0.640625 -1.796875 -0.640625q-1.59375 0 -2.59375 1.15625q-0.984375 1.140625 -0.984375 3.609375q0 2.5 0.953125 3.640625q0.96875 1.140625 2.515625 1.140625q1.234375 0 2.0625 -0.765625q0.84375 -0.765625 1.0625 -2.34375zm3.828125 4.5625l0 -17.1875l2.109375 0l0 17.1875l-2.109375 0zm13.503906 -1.53125q-1.171875 0.984375 -2.265625 1.40625q-1.078125 0.40625 -2.3125 0.40625q-2.046875 0 -3.15625 -1.0q-1.09375 -1.0 -1.09375 -2.5625q0 -0.921875 0.40625 -1.671875q0.421875 -0.75 1.09375 -1.203125q0.671875 -0.46875 1.515625 -0.703125q0.625 -0.15625 1.875 -0.3125q2.5625 -0.3125 3.765625 -0.734375q0.015625 -0.421875 0.015625 -0.546875q0 -1.28125 -0.609375 -1.8125q-0.796875 -0.71875 -2.390625 -0.71875q-1.5 0 -2.203125 0.53125q-0.703125 0.515625 -1.046875 1.84375l-2.0625 -0.28125q0.28125 -1.328125 0.921875 -2.140625q0.640625 -0.8125 1.859375 -1.25q1.21875 -0.453125 2.828125 -0.453125q1.59375 0 2.59375 0.375q1.0 0.375 1.46875 0.953125q0.46875 0.5625 0.65625 1.4375q0.09375 0.53125 0.09375 1.9375l0 2.8125q0 2.9375 0.140625 3.71875q0.140625 0.78125 0.53125 1.5l-2.203125 0q-0.328125 -0.65625 -0.421875 -1.53125zm-0.171875 -4.71875q-1.15625 0.46875 -3.453125 0.796875q-1.296875 0.1875 -1.84375 0.421875q-0.53125 0.234375 -0.828125 0.6875q-0.28125 0.453125 -0.28125 1.0q0 0.84375 0.625 1.40625q0.640625 0.5625 1.875 0.5625q1.21875 0 2.171875 -0.53125q0.953125 -0.53125 1.390625 -1.453125q0.34375 -0.71875 0.34375 -2.109375l0 -0.78125zm4.5507812 2.53125l2.09375 -0.328125q0.171875 1.25 0.96875 1.921875q0.8125 0.671875 2.25 0.671875q1.453125 0 2.15625 -0.59375q0.703125 -0.59375 0.703125 -1.390625q0 -0.71875 -0.625 -1.125q-0.421875 -0.28125 -2.15625 -0.71875q-2.3125 -0.578125 -3.21875 -1.0q-0.890625 -0.4375 -1.359375 -1.1875q-0.453125 -0.765625 -0.453125 -1.671875q0 -0.828125 0.375 -1.53125q0.390625 -0.71875 1.046875 -1.1875q0.484375 -0.359375 1.328125 -0.609375q0.859375 -0.265625 1.828125 -0.265625q1.46875 0 2.578125 0.421875q1.109375 0.421875 1.625 1.15625q0.53125 0.71875 0.734375 1.921875l-2.0625 0.28125q-0.140625 -0.96875 -0.8125 -1.5q-0.671875 -0.546875 -1.90625 -0.546875q-1.453125 0 -2.078125 0.484375q-0.625 0.484375 -0.625 1.125q0 0.40625 0.265625 0.734375q0.25 0.34375 0.8125 0.5625q0.3125 0.125 1.859375 0.546875q2.234375 0.59375 3.109375 0.984375q0.890625 0.375 1.390625 1.109375q0.515625 0.71875 0.515625 1.796875q0 1.046875 -0.625 1.984375q-0.609375 0.9375 -1.765625 1.453125q-1.15625 0.5 -2.625 0.5q-2.421875 0 -3.703125 -1.0q-1.265625 -1.015625 -1.625 -3.0zm12.0 0l2.09375 -0.328125q0.171875 1.25 0.96875 1.921875q0.8125 0.671875 2.25 0.671875q1.453125 0 2.15625 -0.59375q0.703125 -0.59375 0.703125 -1.390625q0 -0.71875 -0.625 -1.125q-0.421875 -0.28125 -2.15625 -0.71875q-2.3125 -0.578125 -3.21875 -1.0q-0.890625 -0.4375 -1.359375 -1.1875q-0.453125 -0.765625 -0.453125 -1.671875q0 -0.828125 0.375 -1.53125q0.390625 -0.71875 1.046875 -1.1875q0.484375 -0.359375 1.328125 -0.609375q0.859375 -0.265625 1.828125 -0.265625q1.46875 0 2.578125 0.421875q1.109375 0.421875 1.625 1.15625q0.53125 0.71875 0.734375 1.921875l-2.0625 0.28125q-0.140625 -0.96875 -0.8125 -1.5q-0.671875 -0.546875 -1.90625 -0.546875q-1.453125 0 -2.078125 0.484375q-0.625 0.484375 -0.625 1.125q0 0.40625 0.265625 0.734375q0.25 0.34375 0.8125 0.5625q0.3125 0.125 1.859375 0.546875q2.234375 0.59375 3.109375 0.984375q0.890625 0.375 1.390625 1.109375q0.515625 0.71875 0.515625 1.796875q0 1.046875 -0.625 1.984375q-0.609375 0.9375 -1.765625 1.453125q-1.15625 0.5 -2.625 0.5q-2.421875 0 -3.703125 -1.0q-1.265625 -1.015625 -1.625 -3.0zm12.859375 -11.03125l0 -2.4375l2.109375 0l0 2.4375l-2.109375 0zm0 14.75l0 -12.453125l2.109375 0l0 12.453125l-2.109375 0zm5.8320312 0l0 -10.8125l-1.875 0l0 -1.640625l1.875 0l0 -1.3125q0 -1.265625 0.21875 -1.875q0.296875 -0.8125 1.0625 -1.3125q0.78125 -0.515625 2.15625 -0.515625q0.890625 0 1.96875 0.203125l-0.3125 1.84375q-0.65625 -0.125 -1.25 -0.125q-0.953125 0 -1.359375 0.421875q-0.390625 0.40625 -0.390625 1.53125l0 1.140625l2.421875 0l0 1.640625l-2.421875 0l0 10.8125l-2.09375 0zm6.1679688 -14.75l0 -2.4375l2.109375 0l0 2.4375l-2.109375 0zm0 14.75l0 -12.453125l2.109375 0l0 12.453125l-2.109375 0zm13.441406 -4.5625l2.078125 0.265625q-0.34375 2.15625 -1.75 3.375q-1.390625 1.203125 -3.4375 1.203125q-2.546875 0 -4.109375 -1.671875q-1.546875 -1.671875 -1.546875 -4.78125q0 -2.015625 0.671875 -3.53125q0.671875 -1.515625 2.03125 -2.265625q1.359375 -0.765625 2.96875 -0.765625q2.03125 0 3.3125 1.03125q1.296875 1.03125 1.65625 2.90625l-2.046875 0.328125q-0.296875 -1.265625 -1.046875 -1.890625q-0.734375 -0.640625 -1.796875 -0.640625q-1.59375 0 -2.59375 1.15625q-0.984375 1.140625 -0.984375 3.609375q0 2.5 0.953125 3.640625q0.96875 1.140625 2.515625 1.140625q1.234375 0 2.0625 -0.765625q0.84375 -0.765625 1.0625 -2.34375zm12.0 3.03125q-1.171875 0.984375 -2.265625 1.40625q-1.078125 0.40625 -2.3125 0.40625q-2.046875 0 -3.15625 -1.0q-1.09375 -1.0 -1.09375 -2.5625q0 -0.921875 0.40625 -1.671875q0.421875 -0.75 1.09375 -1.203125q0.671875 -0.46875 1.515625 -0.703125q0.625 -0.15625 1.875 -0.3125q2.5625 -0.3125 3.765625 -0.734375q0.015625 -0.421875 0.015625 -0.546875q0 -1.28125 -0.609375 -1.8125q-0.796875 -0.71875 -2.390625 -0.71875q-1.5 0 -2.203125 0.53125q-0.703125 0.515625 -1.046875 1.84375l-2.0625 -0.28125q0.28125 -1.328125 0.921875 -2.140625q0.640625 -0.8125 1.859375 -1.25q1.21875 -0.453125 2.828125 -0.453125q1.59375 0 2.59375 0.375q1.0 0.375 1.46875 0.953125q0.46875 0.5625 0.65625 1.4375q0.09375 0.53125 0.09375 1.9375l0 2.8125q0 2.9375 0.140625 3.71875q0.140625 0.78125 0.53125 1.5l-2.203125 0q-0.328125 -0.65625 -0.421875 -1.53125zm-0.171875 -4.71875q-1.15625 0.46875 -3.453125 0.796875q-1.296875 0.1875 -1.84375 0.421875q-0.53125 0.234375 -0.828125 0.6875q-0.28125 0.453125 -0.28125 1.0q0 0.84375 0.625 1.40625q0.640625 0.5625 1.875 0.5625q1.21875 0 2.171875 -0.53125q0.953125 -0.53125 1.390625 -1.453125q0.34375 -0.71875 0.34375 -2.109375l0 -0.78125zm10.003906 4.359375l0.3125 1.859375q-0.890625 0.203125 -1.59375 0.203125q-1.15625 0 -1.796875 -0.359375q-0.625 -0.375 -0.890625 -0.96875q-0.25 -0.59375 -0.25 -2.484375l0 -7.171875l-1.546875 0l0 -1.640625l1.546875 0l0 -3.078125l2.09375 -1.265625l0 4.34375l2.125 0l0 1.640625l-2.125 0l0 7.28125q0 0.90625 0.109375 1.171875q0.125 0.25 0.375 0.40625q0.25 0.140625 0.71875 0.140625q0.34375 0 0.921875 -0.078125zm2.0742188 -12.859375l0 -2.4375l2.109375 0l0 2.4375l-2.109375 0zm0 14.75l0 -12.453125l2.109375 0l0 12.453125l-2.109375 0zm4.5351562 -6.21875q0 -3.46875 1.921875 -5.125q1.609375 -1.390625 3.921875 -1.390625q2.5625 0 4.1875 1.6875q1.625 1.6875 1.625 4.640625q0 2.40625 -0.71875 3.78125q-0.71875 1.375 -2.09375 2.140625q-1.375 0.765625 -3.0 0.765625q-2.625 0 -4.234375 -1.671875q-1.609375 -1.6875 -1.609375 -4.828125zm2.171875 0q0 2.390625 1.03125 3.578125q1.046875 1.1875 2.640625 1.1875q1.5625 0 2.609375 -1.1875q1.046875 -1.203125 1.046875 -3.65625q0 -2.3125 -1.0625 -3.5q-1.046875 -1.1875 -2.59375 -1.1875q-1.59375 0 -2.640625 1.1875q-1.03125 1.1875 -1.03125 3.578125zm11.957031 6.21875l0 -12.453125l1.90625 0l0 1.78125q1.375 -2.0625 3.953125 -2.0625q1.125 0 2.0625 0.40625q0.953125 0.40625 1.421875 1.0625q0.46875 0.65625 0.65625 1.5625q0.125 0.578125 0.125 2.046875l0 7.65625l-2.109375 0l0 -7.578125q0 -1.28125 -0.25 -1.921875q-0.25 -0.640625 -0.875 -1.015625q-0.625 -0.390625 -1.46875 -0.390625q-1.34375 0 -2.328125 0.859375q-0.984375 0.859375 -0.984375 3.25l0 6.796875l-2.109375 0z" fill-rule="nonzero"/><path fill="#ffffff" d="m373.9239 229.13408l0 0c0 -6.247757 5.064789 -11.312561 11.312561 -11.312561l198.25677 0c3.0002441 0 5.8776855 1.191864 7.9992065 3.3133698c2.12146 2.121521 3.3133545 4.9989166 3.3133545 7.9991913l0 45.248886c0 6.247772 -5.0648193 11.312561 -11.312561 11.312561l-198.25677 0c-6.247772 0 -11.312561 -5.064789 -11.312561 -11.312561z" fill-rule="evenodd"/><path stroke="#000000" stroke-width="2.0" stroke-linejoin="round" stroke-linecap="butt" d="m373.9239 229.13408l0 0c0 -6.247757 5.064789 -11.312561 11.312561 -11.312561l198.25677 0c3.0002441 0 5.8776855 1.191864 7.9992065 3.3133698c2.12146 2.121521 3.3133545 4.9989166 3.3133545 7.9991913l0 45.248886c0 6.247772 -5.0648193 11.312561 -11.312561 11.312561l-198.25677 0c-6.247772 0 -11.312561 -5.064789 -11.312561 -11.312561z" fill-rule="evenodd"/><path fill="#000000" fill-opacity="0.0" d="m453.69028 227.52231l182.01578 0l0 48.472443l-182.01578 0z" fill-rule="evenodd"/><path fill="#000000" d="m464.28403 244.81232l0 -2.4375l2.109375 0l0 2.4375l-2.109375 0zm0 14.75l0 -12.453125l2.109375 0l0 12.453125l-2.109375 0zm4.4726562 -3.71875l2.09375 -0.328125q0.171875 1.25 0.96875 1.921875q0.8125 0.671875 2.25 0.671875q1.453125 0 2.15625 -0.59375q0.703125 -0.59375 0.703125 -1.390625q0 -0.71875 -0.625 -1.125q-0.421875 -0.28125 -2.15625 -0.71875q-2.3125 -0.578125 -3.21875 -1.0q-0.890625 -0.4375 -1.359375 -1.1875q-0.453125 -0.765625 -0.453125 -1.671875q0 -0.828125 0.375 -1.53125q0.390625 -0.71875 1.046875 -1.1875q0.484375 -0.359375 1.328125 -0.609375q0.859375 -0.265625 1.828125 -0.265625q1.46875 0 2.578125 0.421875q1.109375 0.421875 1.625 1.15625q0.53125 0.71875 0.734375 1.921875l-2.0625 0.28125q-0.140625 -0.96875 -0.8125 -1.5q-0.671875 -0.546875 -1.90625 -0.546875q-1.453125 0 -2.078125 0.484375q-0.625 0.484375 -0.625 1.125q0 0.40625 0.265625 0.734375q0.25 0.34375 0.8125 0.5625q0.3125 0.125 1.859375 0.546875q2.234375 0.59375 3.109375 0.984375q0.890625 0.375 1.390625 1.109375q0.515625 0.71875 0.515625 1.796875q0 1.046875 -0.625 1.984375q-0.609375 0.9375 -1.765625 1.453125q-1.15625 0.5 -2.625 0.5q-2.421875 0 -3.703125 -1.0q-1.265625 -1.015625 -1.625 -3.0zm27.636719 2.1875q-1.171875 0.984375 -2.265625 1.40625q-1.078125 0.40625 -2.3125 0.40625q-2.046875 0 -3.15625 -1.0q-1.09375 -1.0 -1.09375 -2.5625q0 -0.921875 0.40625 -1.671875q0.421875 -0.75 1.09375 -1.203125q0.671875 -0.46875 1.515625 -0.703125q0.625 -0.15625 1.875 -0.3125q2.5625 -0.3125 3.765625 -0.734375q0.015625 -0.421875 0.015625 -0.546875q0 -1.28125 -0.609375 -1.8125q-0.796875 -0.71875 -2.390625 -0.71875q-1.5 0 -2.203125 0.53125q-0.703125 0.515625 -1.046875 1.84375l-2.0625 -0.28125q0.28125 -1.328125 0.921875 -2.140625q0.640625 -0.8125 1.859375 -1.25q1.21875 -0.453125 2.828125 -0.453125q1.59375 0 2.59375 0.375q1.0 0.375 1.46875 0.953125q0.46875 0.5625 0.65625 1.4375q0.09375 0.53125 0.09375 1.9375l0 2.8125q0 2.9375 0.140625 3.71875q0.140625 0.78125 0.53125 1.5l-2.203125 0q-0.328125 -0.65625 -0.421875 -1.53125zm-0.171875 -4.71875q-1.15625 0.46875 -3.453125 0.796875q-1.296875 0.1875 -1.84375 0.421875q-0.53125 0.234375 -0.828125 0.6875q-0.28125 0.453125 -0.28125 1.0q0 0.84375 0.625 1.40625q0.640625 0.5625 1.875 0.5625q1.21875 0 2.171875 -0.53125q0.953125 -0.53125 1.390625 -1.453125q0.34375 -0.71875 0.34375 -2.109375l0 -0.78125z" fill-rule="nonzero"/><path fill="#ffffff" d="m693.6457 229.13408l0 0c0 -6.247757 5.0647583 -11.312561 11.312561 -11.312561l198.25677 0c3.0002441 0 5.8776245 1.191864 7.9991455 3.3133698c2.121521 2.121521 3.3134155 4.9989166 3.3134155 7.9991913l0 45.248886c0 6.247772 -5.0648193 11.312561 -11.312561 11.312561l-198.25677 0c-6.2478027 0 -11.312561 -5.064789 -11.312561 -11.312561z" fill-rule="evenodd"/><path stroke="#000000" stroke-width="2.0" stroke-linejoin="round" stroke-linecap="butt" d="m693.6457 229.13408l0 0c0 -6.247757 5.0647583 -11.312561 11.312561 -11.312561l198.25677 0c3.0002441 0 5.8776245 1.191864 7.9991455 3.3133698c2.121521 2.121521 3.3134155 4.9989166 3.3134155 7.9991913l0 45.248886c0 6.247772 -5.0648193 11.312561 -11.312561 11.312561l-198.25677 0c-6.2478027 0 -11.312561 -5.064789 -11.312561 -11.312561z" fill-rule="evenodd"/><path fill="#000000" fill-opacity="0.0" d="m741.7087 227.52231l182.01575 0l0 48.472443l-182.01575 0z" fill-rule="evenodd"/><path fill="#000000" d="m760.4118 258.03107q-1.171875 0.984375 -2.265625 1.40625q-1.078125 0.40625 -2.3125 0.40625q-2.046875 0 -3.15625 -1.0q-1.09375 -1.0 -1.09375 -2.5625q0 -0.921875 0.40625 -1.671875q0.421875 -0.75 1.09375 -1.203125q0.671875 -0.46875 1.515625 -0.703125q0.625 -0.15625 1.875 -0.3125q2.5625 -0.3125 3.765625 -0.734375q0.015625 -0.421875 0.015625 -0.546875q0 -1.28125 -0.609375 -1.8125q-0.796875 -0.71875 -2.390625 -0.71875q-1.5 0 -2.203125 0.53125q-0.703125 0.515625 -1.046875 1.84375l-2.0625 -0.28125q0.28125 -1.328125 0.921875 -2.140625q0.640625 -0.8125 1.859375 -1.25q1.21875 -0.453125 2.828125 -0.453125q1.59375 0 2.59375 0.375q1.0 0.375 1.46875 0.953125q0.46875 0.5625 0.65625 1.4375q0.09375 0.53125 0.09375 1.9375l0 2.8125q0 2.9375 0.140625 3.71875q0.140625 0.78125 0.53125 1.5l-2.203125 0q-0.328125 -0.65625 -0.421875 -1.53125zm-0.171875 -4.71875q-1.15625 0.46875 -3.453125 0.796875q-1.296875 0.1875 -1.84375 0.421875q-0.53125 0.234375 -0.828125 0.6875q-0.28125 0.453125 -0.28125 1.0q0 0.84375 0.625 1.40625q0.640625 0.5625 1.875 0.5625q1.21875 0 2.171875 -0.53125q0.953125 -0.53125 1.390625 -1.453125q0.34375 -0.71875 0.34375 -2.109375l0 -0.78125zm5.3945312 11.015625l0 -17.21875l1.921875 0l0 1.625q0.6875 -0.953125 1.53125 -1.421875q0.859375 -0.484375 2.078125 -0.484375q1.59375 0 2.8125 0.828125q1.21875 0.8125 1.84375 2.3125q0.625 1.5 0.625 3.28125q0 1.90625 -0.6875 3.4375q-0.6875 1.53125 -2.0 2.34375q-1.296875 0.8125 -2.734375 0.8125q-1.0625 0 -1.90625 -0.4375q-0.828125 -0.453125 -1.375 -1.140625l0 6.0625l-2.109375 0zm1.921875 -10.921875q0 2.40625 0.96875 3.5625q0.96875 1.140625 2.359375 1.140625q1.40625 0 2.40625 -1.1875q1.0 -1.1875 1.0 -3.6875q0 -2.375 -0.984375 -3.5625q-0.96875 -1.1875 -2.328125 -1.1875q-1.359375 0 -2.390625 1.265625q-1.03125 1.25 -1.03125 3.65625zm11.425781 10.921875l0 -17.21875l1.921875 0l0 1.625q0.6875 -0.953125 1.53125 -1.421875q0.859375 -0.484375 2.078125 -0.484375q1.59375 0 2.8125 0.828125q1.21875 0.8125 1.84375 2.3125q0.625 1.5 0.625 3.28125q0 1.90625 -0.6875 3.4375q-0.6875 1.53125 -2.0 2.34375q-1.296875 0.8125 -2.734375 0.8125q-1.0625 0 -1.90625 -0.4375q-0.828125 -0.453125 -1.375 -1.140625l0 6.0625l-2.109375 0zm1.921875 -10.921875q0 2.40625 0.96875 3.5625q0.96875 1.140625 2.359375 1.140625q1.40625 0 2.40625 -1.1875q1.0 -1.1875 1.0 -3.6875q0 -2.375 -0.984375 -3.5625q-0.96875 -1.1875 -2.328125 -1.1875q-1.359375 0 -2.390625 1.265625q-1.03125 1.25 -1.03125 3.65625zm11.378906 6.15625l0 -17.1875l2.109375 0l0 17.1875l-2.109375 0zm5.3945312 -14.75l0 -2.4375l2.109375 0l0 2.4375l-2.109375 0zm0 14.75l0 -12.453125l2.109375 0l0 12.453125l-2.109375 0zm13.441406 -4.5625l2.078125 0.265625q-0.34375 2.15625 -1.75 3.375q-1.390625 1.203125 -3.4375 1.203125q-2.546875 0 -4.109375 -1.671875q-1.546875 -1.671875 -1.546875 -4.78125q0 -2.015625 0.671875 -3.53125q0.671875 -1.515625 2.03125 -2.265625q1.359375 -0.765625 2.96875 -0.765625q2.03125 0 3.3125 1.03125q1.296875 1.03125 1.65625 2.90625l-2.046875 0.328125q-0.296875 -1.265625 -1.046875 -1.890625q-0.734375 -0.640625 -1.796875 -0.640625q-1.59375 0 -2.59375 1.15625q-0.984375 1.140625 -0.984375 3.609375q0 2.5 0.953125 3.640625q0.96875 1.140625 2.515625 1.140625q1.234375 0 2.0625 -0.765625q0.84375 -0.765625 1.0625 -2.34375zm12.0 3.03125q-1.171875 0.984375 -2.265625 1.40625q-1.078125 0.40625 -2.3125 0.40625q-2.046875 0 -3.15625 -1.0q-1.09375 -1.0 -1.09375 -2.5625q0 -0.921875 0.40625 -1.671875q0.421875 -0.75 1.09375 -1.203125q0.671875 -0.46875 1.515625 -0.703125q0.625 -0.15625 1.875 -0.3125q2.5625 -0.3125 3.765625 -0.734375q0.015625 -0.421875 0.015625 -0.546875q0 -1.28125 -0.609375 -1.8125q-0.796875 -0.71875 -2.390625 -0.71875q-1.5 0 -2.203125 0.53125q-0.703125 0.515625 -1.046875 1.84375l-2.0625 -0.28125q0.28125 -1.328125 0.921875 -2.140625q0.640625 -0.8125 1.859375 -1.25q1.21875 -0.453125 2.828125 -0.453125q1.59375 0 2.59375 0.375q1.0 0.375 1.46875 0.953125q0.46875 0.5625 0.65625 1.4375q0.09375 0.53125 0.09375 1.9375l0 2.8125q0 2.9375 0.140625 3.71875q0.140625 0.78125 0.53125 1.5l-2.203125 0q-0.328125 -0.65625 -0.421875 -1.53125zm-0.171875 -4.71875q-1.15625 0.46875 -3.453125 0.796875q-1.296875 0.1875 -1.84375 0.421875q-0.53125 0.234375 -0.828125 0.6875q-0.28125 0.453125 -0.28125 1.0q0 0.84375 0.625 1.40625q0.640625 0.5625 1.875 0.5625q1.21875 0 2.171875 -0.53125q0.953125 -0.53125 1.390625 -1.453125q0.34375 -0.71875 0.34375 -2.109375l0 -0.78125zm10.003906 4.359375l0.3125 1.859375q-0.890625 0.203125 -1.59375 0.203125q-1.15625 0 -1.796875 -0.359375q-0.625 -0.375 -0.890625 -0.96875q-0.25 -0.59375 -0.25 -2.484375l0 -7.171875l-1.546875 0l0 -1.640625l1.546875 0l0 -3.078125l2.09375 -1.265625l0 4.34375l2.125 0l0 1.640625l-2.125 0l0 7.28125q0 0.90625 0.109375 1.171875q0.125 0.25 0.375 0.40625q0.25 0.140625 0.71875 0.140625q0.34375 0 0.921875 -0.078125zm2.0742188 -12.859375l0 -2.4375l2.109375 0l0 2.4375l-2.109375 0zm0 14.75l0 -12.453125l2.109375 0l0 12.453125l-2.109375 0zm4.5351562 -6.21875q0 -3.46875 1.921875 -5.125q1.609375 -1.390625 3.921875 -1.390625q2.5625 0 4.1875 1.6875q1.625 1.6875 1.625 4.640625q0 2.40625 -0.71875 3.78125q-0.71875 1.375 -2.09375 2.140625q-1.375 0.765625 -3.0 0.765625q-2.625 0 -4.234375 -1.671875q-1.609375 -1.6875 -1.609375 -4.828125zm2.171875 0q0 2.390625 1.03125 3.578125q1.046875 1.1875 2.640625 1.1875q1.5625 0 2.609375 -1.1875q1.046875 -1.203125 1.046875 -3.65625q0 -2.3125 -1.0625 -3.5q-1.046875 -1.1875 -2.59375 -1.1875q-1.59375 0 -2.640625 1.1875q-1.03125 1.1875 -1.03125 3.578125zm11.957031 6.21875l0 -12.453125l1.90625 0l0 1.78125q1.375 -2.0625 3.953125 -2.0625q1.125 0 2.0625 0.40625q0.953125 0.40625 1.421875 1.0625q0.46875 0.65625 0.65625 1.5625q0.125 0.578125 0.125 2.046875l0 7.65625l-2.109375 0l0 -7.578125q0 -1.28125 -0.25 -1.921875q-0.25 -0.640625 -0.875 -1.015625q-0.625 -0.390625 -1.46875 -0.390625q-1.34375 0 -2.328125 0.859375q-0.984375 0.859375 -0.984375 3.25l0 6.796875l-2.109375 0z" fill-rule="nonzero"/><path fill="#ffffff" d="m693.6457 372.23907l0 0c0 -6.247772 5.0647583 -11.312561 11.312561 -11.312561l198.25677 0c3.0002441 0 5.8776245 1.191864 7.9991455 3.3133545c2.121521 2.121521 3.3134155 4.998932 3.3134155 7.9992065l0 45.2489c0 6.2477417 -5.0648193 11.312561 -11.312561 11.312561l-198.25677 0c-6.2478027 0 -11.312561 -5.0648193 -11.312561 -11.312561z" fill-rule="evenodd"/><path stroke="#000000" stroke-width="2.0" stroke-linejoin="round" stroke-linecap="butt" d="m693.6457 372.23907l0 0c0 -6.247772 5.0647583 -11.312561 11.312561 -11.312561l198.25677 0c3.0002441 0 5.8776245 1.191864 7.9991455 3.3133545c2.121521 2.121521 3.3134155 4.998932 3.3134155 7.9992065l0 45.2489c0 6.2477417 -5.0648193 11.312561 -11.312561 11.312561l-198.25677 0c-6.2478027 0 -11.312561 -5.0648193 -11.312561 -11.312561z" fill-rule="evenodd"/><path fill="#000000" fill-opacity="0.0" d="m721.2572 370.6273l182.01575 0l0 48.472443l-182.01575 0z" fill-rule="evenodd"/><path fill="#000000" d="m739.9603 398.1048l2.078125 0.265625q-0.34375 2.15625 -1.75 3.375q-1.390625 1.203125 -3.4375 1.203125q-2.546875 0 -4.109375 -1.671875q-1.546875 -1.671875 -1.546875 -4.78125q0 -2.015625 0.671875 -3.53125q0.671875 -1.515625 2.03125 -2.265625q1.359375 -0.765625 2.96875 -0.765625q2.03125 0 3.3125 1.03125q1.296875 1.03125 1.65625 2.90625l-2.046875 0.328125q-0.296875 -1.265625 -1.046875 -1.890625q-0.734375 -0.640625 -1.796875 -0.640625q-1.59375 0 -2.59375 1.15625q-0.984375 1.140625 -0.984375 3.609375q0 2.5 0.953125 3.640625q0.96875 1.140625 2.515625 1.140625q1.234375 0 2.0625 -0.765625q0.84375 -0.765625 1.0625 -2.34375zm3.828125 4.5625l0 -17.1875l2.109375 0l0 17.1875l-2.109375 0zm13.503906 -1.53125q-1.171875 0.984375 -2.265625 1.40625q-1.078125 0.40625 -2.3125 0.40625q-2.046875 0 -3.15625 -1.0q-1.09375 -1.0 -1.09375 -2.5625q0 -0.921875 0.40625 -1.671875q0.421875 -0.75 1.09375 -1.203125q0.671875 -0.46875 1.515625 -0.703125q0.625 -0.15625 1.875 -0.3125q2.5625 -0.3125 3.765625 -0.734375q0.015625 -0.421875 0.015625 -0.546875q0 -1.28125 -0.609375 -1.8125q-0.796875 -0.71875 -2.390625 -0.71875q-1.5 0 -2.203125 0.53125q-0.703125 0.515625 -1.046875 1.84375l-2.0625 -0.28125q0.28125 -1.328125 0.921875 -2.140625q0.640625 -0.8125 1.859375 -1.25q1.21875 -0.453125 2.828125 -0.453125q1.59375 0 2.59375 0.375q1.0 0.375 1.46875 0.953125q0.46875 0.5625 0.65625 1.4375q0.09375 0.53125 0.09375 1.9375l0 2.8125q0 2.9375 0.140625 3.71875q0.140625 0.78125 0.53125 1.5l-2.203125 0q-0.328125 -0.65625 -0.421875 -1.53125zm-0.171875 -4.71875q-1.15625 0.46875 -3.453125 0.796875q-1.296875 0.1875 -1.84375 0.421875q-0.53125 0.234375 -0.828125 0.6875q-0.28125 0.453125 -0.28125 1.0q0 0.84375 0.625 1.40625q0.640625 0.5625 1.875 0.5625q1.21875 0 2.171875 -0.53125q0.953125 -0.53125 1.390625 -1.453125q0.34375 -0.71875 0.34375 -2.109375l0 -0.78125zm4.5507812 2.53125l2.09375 -0.328125q0.171875 1.25 0.96875 1.921875q0.8125 0.671875 2.25 0.671875q1.453125 0 2.15625 -0.59375q0.703125 -0.59375 0.703125 -1.390625q0 -0.71875 -0.625 -1.125q-0.421875 -0.28125 -2.15625 -0.71875q-2.3125 -0.578125 -3.21875 -1.0q-0.890625 -0.4375 -1.359375 -1.1875q-0.453125 -0.765625 -0.453125 -1.671875q0 -0.828125 0.375 -1.53125q0.390625 -0.71875 1.046875 -1.1875q0.484375 -0.359375 1.328125 -0.609375q0.859375 -0.265625 1.828125 -0.265625q1.46875 0 2.578125 0.421875q1.109375 0.421875 1.625 1.15625q0.53125 0.71875 0.734375 1.921875l-2.0625 0.28125q-0.140625 -0.96875 -0.8125 -1.5q-0.671875 -0.546875 -1.90625 -0.546875q-1.453125 0 -2.078125 0.484375q-0.625 0.484375 -0.625 1.125q0 0.40625 0.265625 0.734375q0.25 0.34375 0.8125 0.5625q0.3125 0.125 1.859375 0.546875q2.234375 0.59375 3.109375 0.984375q0.890625 0.375 1.390625 1.109375q0.515625 0.71875 0.515625 1.796875q0 1.046875 -0.625 1.984375q-0.609375 0.9375 -1.765625 1.453125q-1.15625 0.5 -2.625 0.5q-2.421875 0 -3.703125 -1.0q-1.265625 -1.015625 -1.625 -3.0zm12.0 0l2.09375 -0.328125q0.171875 1.25 0.96875 1.921875q0.8125 0.671875 2.25 0.671875q1.453125 0 2.15625 -0.59375q0.703125 -0.59375 0.703125 -1.390625q0 -0.71875 -0.625 -1.125q-0.421875 -0.28125 -2.15625 -0.71875q-2.3125 -0.578125 -3.21875 -1.0q-0.890625 -0.4375 -1.359375 -1.1875q-0.453125 -0.765625 -0.453125 -1.671875q0 -0.828125 0.375 -1.53125q0.390625 -0.71875 1.046875 -1.1875q0.484375 -0.359375 1.328125 -0.609375q0.859375 -0.265625 1.828125 -0.265625q1.46875 0 2.578125 0.421875q1.109375 0.421875 1.625 1.15625q0.53125 0.71875 0.734375 1.921875l-2.0625 0.28125q-0.140625 -0.96875 -0.8125 -1.5q-0.671875 -0.546875 -1.90625 -0.546875q-1.453125 0 -2.078125 0.484375q-0.625 0.484375 -0.625 1.125q0 0.40625 0.265625 0.734375q0.25 0.34375 0.8125 0.5625q0.3125 0.125 1.859375 0.546875q2.234375 0.59375 3.109375 0.984375q0.890625 0.375 1.390625 1.109375q0.515625 0.71875 0.515625 1.796875q0 1.046875 -0.625 1.984375q-0.609375 0.9375 -1.765625 1.453125q-1.15625 0.5 -2.625 0.5q-2.421875 0 -3.703125 -1.0q-1.265625 -1.015625 -1.625 -3.0zm12.859375 -11.03125l0 -2.4375l2.109375 0l0 2.4375l-2.109375 0zm0 14.75l0 -12.453125l2.109375 0l0 12.453125l-2.109375 0zm5.8320312 0l0 -10.8125l-1.875 0l0 -1.640625l1.875 0l0 -1.3125q0 -1.265625 0.21875 -1.875q0.296875 -0.8125 1.0625 -1.3125q0.78125 -0.515625 2.15625 -0.515625q0.890625 0 1.96875 0.203125l-0.3125 1.84375q-0.65625 -0.125 -1.25 -0.125q-0.953125 0 -1.359375 0.421875q-0.390625 0.40625 -0.390625 1.53125l0 1.140625l2.421875 0l0 1.640625l-2.421875 0l0 10.8125l-2.09375 0zm6.1679688 -14.75l0 -2.4375l2.109375 0l0 2.4375l-2.109375 0zm0 14.75l0 -12.453125l2.109375 0l0 12.453125l-2.109375 0zm13.441406 -4.5625l2.078125 0.265625q-0.34375 2.15625 -1.75 3.375q-1.390625 1.203125 -3.4375 1.203125q-2.546875 0 -4.109375 -1.671875q-1.546875 -1.671875 -1.546875 -4.78125q0 -2.015625 0.671875 -3.53125q0.671875 -1.515625 2.03125 -2.265625q1.359375 -0.765625 2.96875 -0.765625q2.03125 0 3.3125 1.03125q1.296875 1.03125 1.65625 2.90625l-2.046875 0.328125q-0.296875 -1.265625 -1.046875 -1.890625q-0.734375 -0.640625 -1.796875 -0.640625q-1.59375 0 -2.59375 1.15625q-0.984375 1.140625 -0.984375 3.609375q0 2.5 0.953125 3.640625q0.96875 1.140625 2.515625 1.140625q1.234375 0 2.0625 -0.765625q0.84375 -0.765625 1.0625 -2.34375zm12.0 3.03125q-1.171875 0.984375 -2.265625 1.40625q-1.078125 0.40625 -2.3125 0.40625q-2.046875 0 -3.15625 -1.0q-1.09375 -1.0 -1.09375 -2.5625q0 -0.921875 0.40625 -1.671875q0.421875 -0.75 1.09375 -1.203125q0.671875 -0.46875 1.515625 -0.703125q0.625 -0.15625 1.875 -0.3125q2.5625 -0.3125 3.765625 -0.734375q0.015625 -0.421875 0.015625 -0.546875q0 -1.28125 -0.609375 -1.8125q-0.796875 -0.71875 -2.390625 -0.71875q-1.5 0 -2.203125 0.53125q-0.703125 0.515625 -1.046875 1.84375l-2.0625 -0.28125q0.28125 -1.328125 0.921875 -2.140625q0.640625 -0.8125 1.859375 -1.25q1.21875 -0.453125 2.828125 -0.453125q1.59375 0 2.59375 0.375q1.0 0.375 1.46875 0.953125q0.46875 0.5625 0.65625 1.4375q0.09375 0.53125 0.09375 1.9375l0 2.8125q0 2.9375 0.140625 3.71875q0.140625 0.78125 0.53125 1.5l-2.203125 0q-0.328125 -0.65625 -0.421875 -1.53125zm-0.171875 -4.71875q-1.15625 0.46875 -3.453125 0.796875q-1.296875 0.1875 -1.84375 0.421875q-0.53125 0.234375 -0.828125 0.6875q-0.28125 0.453125 -0.28125 1.0q0 0.84375 0.625 1.40625q0.640625 0.5625 1.875 0.5625q1.21875 0 2.171875 -0.53125q0.953125 -0.53125 1.390625 -1.453125q0.34375 -0.71875 0.34375 -2.109375l0 -0.78125zm10.003906 4.359375l0.3125 1.859375q-0.890625 0.203125 -1.59375 0.203125q-1.15625 0 -1.796875 -0.359375q-0.625 -0.375 -0.890625 -0.96875q-0.25 -0.59375 -0.25 -2.484375l0 -7.171875l-1.546875 0l0 -1.640625l1.546875 0l0 -3.078125l2.09375 -1.265625l0 4.34375l2.125 0l0 1.640625l-2.125 0l0 7.28125q0 0.90625 0.109375 1.171875q0.125 0.25 0.375 0.40625q0.25 0.140625 0.71875 0.140625q0.34375 0 0.921875 -0.078125zm2.0742188 -12.859375l0 -2.4375l2.109375 0l0 2.4375l-2.109375 0zm0 14.75l0 -12.453125l2.109375 0l0 12.453125l-2.109375 0zm4.5351562 -6.21875q0 -3.46875 1.921875 -5.125q1.609375 -1.390625 3.921875 -1.390625q2.5625 0 4.1875 1.6875q1.625 1.6875 1.625 4.640625q0 2.40625 -0.71875 3.78125q-0.71875 1.375 -2.09375 2.140625q-1.375 0.765625 -3.0 0.765625q-2.625 0 -4.234375 -1.671875q-1.609375 -1.6875 -1.609375 -4.828125zm2.171875 0q0 2.390625 1.03125 3.578125q1.046875 1.1875 2.640625 1.1875q1.5625 0 2.609375 -1.1875q1.046875 -1.203125 1.046875 -3.65625q0 -2.3125 -1.0625 -3.5q-1.046875 -1.1875 -2.59375 -1.1875q-1.59375 0 -2.640625 1.1875q-1.03125 1.1875 -1.03125 3.578125zm11.957031 6.21875l0 -12.453125l1.90625 0l0 1.78125q1.375 -2.0625 3.953125 -2.0625q1.125 0 2.0625 0.40625q0.953125 0.40625 1.421875 1.0625q0.46875 0.65625 0.65625 1.5625q0.125 0.578125 0.125 2.046875l0 7.65625l-2.109375 0l0 -7.578125q0 -1.28125 -0.25 -1.921875q-0.25 -0.640625 -0.875 -1.015625q-0.625 -0.390625 -1.46875 -0.390625q-1.34375 0 -2.328125 0.859375q-0.984375 0.859375 -0.984375 3.25l0 6.796875l-2.109375 0z" fill-rule="nonzero"/><path fill="#ffffff" d="m64.42519 372.23907l0 0c0 -6.247772 5.0648117 -11.312561 11.312569 -11.312561l198.25677 0c3.0002747 0 5.877655 1.191864 7.999176 3.3133545c2.121521 2.121521 3.313385 4.998932 3.313385 7.9992065l0 45.2489c0 6.2477417 -5.0648193 11.312561 -11.312561 11.312561l-198.25677 0c-6.247757 0 -11.312569 -5.0648193 -11.312569 -11.312561z" fill-rule="evenodd"/><path stroke="#000000" stroke-width="2.0" stroke-linejoin="round" stroke-linecap="butt" d="m64.42519 372.23907l0 0c0 -6.247772 5.0648117 -11.312561 11.312569 -11.312561l198.25677 0c3.0002747 0 5.877655 1.191864 7.999176 3.3133545c2.121521 2.121521 3.313385 4.998932 3.313385 7.9992065l0 45.2489c0 6.2477417 -5.0648193 11.312561 -11.312561 11.312561l-198.25677 0c-6.247757 0 -11.312569 -5.0648193 -11.312569 -11.312561z" fill-rule="evenodd"/><path fill="#000000" fill-opacity="0.0" d="m92.03674 370.6273l182.01575 0l0 48.472443l-182.01575 0z" fill-rule="evenodd"/><path fill="#000000" d="m110.69299 402.6673l0 -1.578125q-1.1875 1.859375 -3.484375 1.859375q-1.484375 0 -2.734375 -0.8125q-1.25 -0.828125 -1.9375 -2.296875q-0.671875 -1.46875 -0.671875 -3.390625q0 -1.859375 0.609375 -3.375q0.625 -1.515625 1.859375 -2.328125q1.25 -0.8125 2.78125 -0.8125q1.125 0 2.0 0.484375q0.890625 0.46875 1.4375 1.234375l0 -6.171875l2.09375 0l0 17.1875l-1.953125 0zm-6.671875 -6.21875q0 2.390625 1.0 3.578125q1.015625 1.1875 2.390625 1.1875q1.390625 0 2.34375 -1.125q0.96875 -1.140625 0.96875 -3.453125q0 -2.5625 -0.984375 -3.75q-0.984375 -1.203125 -2.421875 -1.203125q-1.40625 0 -2.359375 1.15625q-0.9375 1.140625 -0.9375 3.609375zm20.472656 2.203125l2.171875 0.28125q-0.515625 1.90625 -1.90625 2.96875q-1.390625 1.046875 -3.5625 1.046875q-2.734375 0 -4.34375 -1.671875q-1.59375 -1.6875 -1.59375 -4.734375q0 -3.140625 1.609375 -4.875q1.625 -1.734375 4.203125 -1.734375q2.5 0 4.078125 1.703125q1.59375 1.703125 1.59375 4.78125q0 0.1875 -0.015625 0.5625l-9.28125 0q0.109375 2.046875 1.15625 3.140625q1.046875 1.09375 2.609375 1.09375q1.15625 0 1.96875 -0.609375q0.828125 -0.609375 1.3125 -1.953125zm-6.9375 -3.40625l6.953125 0q-0.140625 -1.5625 -0.796875 -2.359375q-1.0 -1.21875 -2.609375 -1.21875q-1.453125 0 -2.453125 0.984375q-0.984375 0.96875 -1.09375 2.59375zm19.878906 2.859375l2.078125 0.265625q-0.34375 2.15625 -1.75 3.375q-1.390625 1.203125 -3.4375 1.203125q-2.546875 0 -4.109375 -1.671875q-1.546875 -1.671875 -1.546875 -4.78125q0 -2.015625 0.671875 -3.53125q0.671875 -1.515625 2.03125 -2.265625q1.359375 -0.765625 2.96875 -0.765625q2.03125 0 3.3125 1.03125q1.296875 1.03125 1.65625 2.90625l-2.046875 0.328125q-0.296875 -1.265625 -1.046875 -1.890625q-0.734375 -0.640625 -1.796875 -0.640625q-1.59375 0 -2.59375 1.15625q-0.984375 1.140625 -0.984375 3.609375q0 2.5 0.953125 3.640625q0.96875 1.140625 2.515625 1.140625q1.234375 0 2.0625 -0.765625q0.84375 -0.765625 1.0625 -2.34375zm3.890625 -10.1875l0 -2.4375l2.109375 0l0 2.4375l-2.109375 0zm0 14.75l0 -12.453125l2.109375 0l0 12.453125l-2.109375 0zm4.4726562 -3.71875l2.09375 -0.328125q0.171875 1.25 0.96875 1.921875q0.8125 0.671875 2.25 0.671875q1.453125 0 2.15625 -0.59375q0.703125 -0.59375 0.703125 -1.390625q0 -0.71875 -0.625 -1.125q-0.421875 -0.28125 -2.15625 -0.71875q-2.3125 -0.578125 -3.21875 -1.0q-0.890625 -0.4375 -1.359375 -1.1875q-0.453125 -0.765625 -0.453125 -1.671875q0 -0.828125 0.375 -1.53125q0.390625 -0.71875 1.046875 -1.1875q0.484375 -0.359375 1.328125 -0.609375q0.859375 -0.265625 1.828125 -0.265625q1.46875 0 2.578125 0.421875q1.109375 0.421875 1.625 1.15625q0.53125 0.71875 0.734375 1.921875l-2.0625 0.28125q-0.140625 -0.96875 -0.8125 -1.5q-0.671875 -0.546875 -1.90625 -0.546875q-1.453125 0 -2.078125 0.484375q-0.625 0.484375 -0.625 1.125q0 0.40625 0.265625 0.734375q0.25 0.34375 0.8125 0.5625q0.3125 0.125 1.859375 0.546875q2.234375 0.59375 3.109375 0.984375q0.890625 0.375 1.390625 1.109375q0.515625 0.71875 0.515625 1.796875q0 1.046875 -0.625 1.984375q-0.609375 0.9375 -1.765625 1.453125q-1.15625 0.5 -2.625 0.5q-2.421875 0 -3.703125 -1.0q-1.265625 -1.015625 -1.625 -3.0zm12.859375 -11.03125l0 -2.4375l2.109375 0l0 2.4375l-2.109375 0zm0 14.75l0 -12.453125l2.109375 0l0 12.453125l-2.109375 0zm4.5351562 -6.21875q0 -3.46875 1.921875 -5.125q1.609375 -1.390625 3.921875 -1.390625q2.5625 0 4.1875 1.6875q1.625 1.6875 1.625 4.640625q0 2.40625 -0.71875 3.78125q-0.71875 1.375 -2.09375 2.140625q-1.375 0.765625 -3.0 0.765625q-2.625 0 -4.234375 -1.671875q-1.609375 -1.6875 -1.609375 -4.828125zm2.171875 0q0 2.390625 1.03125 3.578125q1.046875 1.1875 2.640625 1.1875q1.5625 0 2.609375 -1.1875q1.046875 -1.203125 1.046875 -3.65625q0 -2.3125 -1.0625 -3.5q-1.046875 -1.1875 -2.59375 -1.1875q-1.59375 0 -2.640625 1.1875q-1.03125 1.1875 -1.03125 3.578125zm11.957031 6.21875l0 -12.453125l1.90625 0l0 1.78125q1.375 -2.0625 3.953125 -2.0625q1.125 0 2.0625 0.40625q0.953125 0.40625 1.421875 1.0625q0.46875 0.65625 0.65625 1.5625q0.125 0.578125 0.125 2.046875l0 7.65625l-2.109375 0l0 -7.578125q0 -1.28125 -0.25 -1.921875q-0.25 -0.640625 -0.875 -1.015625q-0.625 -0.390625 -1.46875 -0.390625q-1.34375 0 -2.328125 0.859375q-0.984375 0.859375 -0.984375 3.25l0 6.796875l-2.109375 0zm24.625 -1.890625l0.3125 1.859375q-0.890625 0.203125 -1.59375 0.203125q-1.15625 0 -1.796875 -0.359375q-0.625 -0.375 -0.890625 -0.96875q-0.25 -0.59375 -0.25 -2.484375l0 -7.171875l-1.546875 0l0 -1.640625l1.546875 0l0 -3.078125l2.09375 -1.265625l0 4.34375l2.125 0l0 1.640625l-2.125 0l0 7.28125q0 0.90625 0.109375 1.171875q0.125 0.25 0.375 0.40625q0.25 0.140625 0.71875 0.140625q0.34375 0 0.921875 -0.078125zm2.0429688 1.890625l0 -12.453125l1.890625 0l0 1.890625q0.734375 -1.328125 1.34375 -1.75q0.625 -0.421875 1.359375 -0.421875q1.0625 0 2.171875 0.6875l-0.734375 1.953125q-0.765625 -0.453125 -1.546875 -0.453125q-0.6875 0 -1.25 0.421875q-0.546875 0.40625 -0.78125 1.140625q-0.34375 1.125 -0.34375 2.46875l0 6.515625l-2.109375 0zm16.539062 -4.015625l2.171875 0.28125q-0.515625 1.90625 -1.90625 2.96875q-1.390625 1.046875 -3.5625 1.046875q-2.734375 0 -4.34375 -1.671875q-1.59375 -1.6875 -1.59375 -4.734375q0 -3.140625 1.609375 -4.875q1.625 -1.734375 4.203125 -1.734375q2.5 0 4.078125 1.703125q1.59375 1.703125 1.59375 4.78125q0 0.1875 -0.015625 0.5625l-9.28125 0q0.109375 2.046875 1.15625 3.140625q1.046875 1.09375 2.609375 1.09375q1.15625 0 1.96875 -0.609375q0.828125 -0.609375 1.3125 -1.953125zm-6.9375 -3.40625l6.953125 0q-0.140625 -1.5625 -0.796875 -2.359375q-1.0 -1.21875 -2.609375 -1.21875q-1.453125 0 -2.453125 0.984375q-0.984375 0.96875 -1.09375 2.59375zm20.285156 3.40625l2.171875 0.28125q-0.515625 1.90625 -1.90625 2.96875q-1.390625 1.046875 -3.5625 1.046875q-2.734375 0 -4.34375 -1.671875q-1.59375 -1.6875 -1.59375 -4.734375q0 -3.140625 1.609375 -4.875q1.625 -1.734375 4.203125 -1.734375q2.5 0 4.078125 1.703125q1.59375 1.703125 1.59375 4.78125q0 0.1875 -0.015625 0.5625l-9.28125 0q0.109375 2.046875 1.15625 3.140625q1.046875 1.09375 2.609375 1.09375q1.15625 0 1.96875 -0.609375q0.828125 -0.609375 1.3125 -1.953125zm-6.9375 -3.40625l6.953125 0q-0.140625 -1.5625 -0.796875 -2.359375q-1.0 -1.21875 -2.609375 -1.21875q-1.453125 0 -2.453125 0.984375q-0.984375 0.96875 -1.09375 2.59375z" fill-rule="nonzero"/><path fill="#ffffff" d="m373.9239 372.23907l0 0c0 -6.247772 5.064789 -11.312561 11.312561 -11.312561l198.25677 0c3.0002441 0 5.8776855 1.191864 7.9992065 3.3133545c2.12146 2.121521 3.3133545 4.998932 3.3133545 7.9992065l0 45.2489c0 6.2477417 -5.0648193 11.312561 -11.312561 11.312561l-198.25677 0c-6.247772 0 -11.312561 -5.0648193 -11.312561 -11.312561z" fill-rule="evenodd"/><path stroke="#000000" stroke-width="2.0" stroke-linejoin="round" stroke-linecap="butt" d="m373.9239 372.23907l0 0c0 -6.247772 5.064789 -11.312561 11.312561 -11.312561l198.25677 0c3.0002441 0 5.8776855 1.191864 7.9992065 3.3133545c2.12146 2.121521 3.3133545 4.998932 3.3133545 7.9992065l0 45.2489c0 6.2477417 -5.0648193 11.312561 -11.312561 11.312561l-198.25677 0c-6.247772 0 -11.312561 -5.0648193 -11.312561 -11.312561z" fill-rule="evenodd"/><path fill="#000000" fill-opacity="0.0" d="m440.39633 370.6273l182.01572 0l0 48.472443l-182.01572 0z" fill-rule="evenodd"/><path fill="#000000" d="m459.09946 398.1048l2.078125 0.265625q-0.34375 2.15625 -1.75 3.375q-1.390625 1.203125 -3.4375 1.203125q-2.546875 0 -4.109375 -1.671875q-1.546875 -1.671875 -1.546875 -4.78125q0 -2.015625 0.671875 -3.53125q0.671875 -1.515625 2.03125 -2.265625q1.359375 -0.765625 2.96875 -0.765625q2.03125 0 3.3125 1.03125q1.296875 1.03125 1.65625 2.90625l-2.046875 0.328125q-0.296875 -1.265625 -1.046875 -1.890625q-0.734375 -0.640625 -1.796875 -0.640625q-1.59375 0 -2.59375 1.15625q-0.984375 1.140625 -0.984375 3.609375q0 2.5 0.953125 3.640625q0.96875 1.140625 2.515625 1.140625q1.234375 0 2.0625 -0.765625q0.84375 -0.765625 1.0625 -2.34375zm12.0 3.03125q-1.171875 0.984375 -2.265625 1.40625q-1.078125 0.40625 -2.3125 0.40625q-2.046875 0 -3.15625 -1.0q-1.09375 -1.0 -1.09375 -2.5625q0 -0.921875 0.40625 -1.671875q0.421875 -0.75 1.09375 -1.203125q0.671875 -0.46875 1.515625 -0.703125q0.625 -0.15625 1.875 -0.3125q2.5625 -0.3125 3.765625 -0.734375q0.015625 -0.421875 0.015625 -0.546875q0 -1.28125 -0.609375 -1.8125q-0.796875 -0.71875 -2.390625 -0.71875q-1.5 0 -2.203125 0.53125q-0.703125 0.515625 -1.046875 1.84375l-2.0625 -0.28125q0.28125 -1.328125 0.921875 -2.140625q0.640625 -0.8125 1.859375 -1.25q1.21875 -0.453125 2.828125 -0.453125q1.59375 0 2.59375 0.375q1.0 0.375 1.46875 0.953125q0.46875 0.5625 0.65625 1.4375q0.09375 0.53125 0.09375 1.9375l0 2.8125q0 2.9375 0.140625 3.71875q0.140625 0.78125 0.53125 1.5l-2.203125 0q-0.328125 -0.65625 -0.421875 -1.53125zm-0.171875 -4.71875q-1.15625 0.46875 -3.453125 0.796875q-1.296875 0.1875 -1.84375 0.421875q-0.53125 0.234375 -0.828125 0.6875q-0.28125 0.453125 -0.28125 1.0q0 0.84375 0.625 1.40625q0.640625 0.5625 1.875 0.5625q1.21875 0 2.171875 -0.53125q0.953125 -0.53125 1.390625 -1.453125q0.34375 -0.71875 0.34375 -2.109375l0 -0.78125zm5.3945312 6.25l0 -12.453125l1.90625 0l0 1.78125q1.375 -2.0625 3.953125 -2.0625q1.125 0 2.0625 0.40625q0.953125 0.40625 1.421875 1.0625q0.46875 0.65625 0.65625 1.5625q0.125 0.578125 0.125 2.046875l0 7.65625l-2.109375 0l0 -7.578125q0 -1.28125 -0.25 -1.921875q-0.25 -0.640625 -0.875 -1.015625q-0.625 -0.390625 -1.46875 -0.390625q-1.34375 0 -2.328125 0.859375q-0.984375 0.859375 -0.984375 3.25l0 6.796875l-2.109375 0zm28.09375 0l0 -1.578125q-1.1875 1.859375 -3.484375 1.859375q-1.484375 0 -2.734375 -0.8125q-1.25 -0.828125 -1.9375 -2.296875q-0.671875 -1.46875 -0.671875 -3.390625q0 -1.859375 0.609375 -3.375q0.625 -1.515625 1.859375 -2.328125q1.25 -0.8125 2.78125 -0.8125q1.125 0 2.0 0.484375q0.890625 0.46875 1.4375 1.234375l0 -6.171875l2.09375 0l0 17.1875l-1.953125 0zm-6.671875 -6.21875q0 2.390625 1.0 3.578125q1.015625 1.1875 2.390625 1.1875q1.390625 0 2.34375 -1.125q0.96875 -1.140625 0.96875 -3.453125q0 -2.5625 -0.984375 -3.75q-0.984375 -1.203125 -2.421875 -1.203125q-1.40625 0 -2.359375 1.15625q-0.9375 1.140625 -0.9375 3.609375zm11.160156 0q0 -3.46875 1.921875 -5.125q1.6093445 -1.390625 3.9218445 -1.390625q2.5625 0 4.1875 1.6875q1.625 1.6875 1.625 4.640625q0 2.40625 -0.71875 3.78125q-0.71875 1.375 -2.09375 2.140625q-1.375 0.765625 -3.0 0.765625q-2.625 0 -4.2343445 -1.671875q-1.609375 -1.6875 -1.609375 -4.828125zm2.171875 0q0 2.390625 1.0312195 3.578125q1.046875 1.1875 2.640625 1.1875q1.5625 0 2.609375 -1.1875q1.046875 -1.203125 1.046875 -3.65625q0 -2.3125 -1.0625 -3.5q-1.046875 -1.1875 -2.59375 -1.1875q-1.59375 0 -2.640625 1.1875q-1.0312195 1.1875 -1.0312195 3.578125z" fill-rule="nonzero"/><path fill="#000000" fill-opacity="0.0" d="m285.3071 251.75853l88.62991 0" fill-rule="evenodd"/><path stroke="#000000" stroke-width="4.0" stroke-linejoin="round" stroke-linecap="butt" d="m285.3071 251.75853l64.62991 0" fill-rule="evenodd"/><path fill="#000000" stroke="#000000" stroke-width="4.0" stroke-linecap="butt" d="m349.937 258.36545l18.152374 -6.6069183l-18.152374 -6.6069336z" fill-rule="evenodd"/><path fill="#000000" fill-opacity="0.0" d="m595.1575 252.57742l98.48822 -0.81889343" fill-rule="evenodd"/><path stroke="#000000" stroke-width="4.0" stroke-linejoin="round" stroke-linecap="butt" d="m595.1575 252.57742l74.48901 -0.61935425" fill-rule="evenodd"/><path fill="#000000" stroke="#000000" stroke-width="4.0" stroke-linecap="butt" d="m669.7014 258.5648l18.096863 -6.7576447l-18.206726 -6.455765z" fill-rule="evenodd"/><path fill="#000000" fill-opacity="0.0" d="m285.3071 394.86353l88.62991 0" fill-rule="evenodd"/><path stroke="#000000" stroke-width="4.0" stroke-linejoin="round" stroke-linecap="butt" d="m285.3071 394.86353l64.62991 0" fill-rule="evenodd"/><path fill="#000000" stroke="#000000" stroke-width="4.0" stroke-linecap="butt" d="m349.937 401.47046l18.152374 -6.6069336l-18.152374 -6.6069336z" fill-rule="evenodd"/><path fill="#000000" fill-opacity="0.0" d="m596.19684 395.7454l97.44885 -0.88186646" fill-rule="evenodd"/><path stroke="#000000" stroke-width="4.0" stroke-linejoin="round" stroke-linecap="butt" d="m596.19684 395.7454l73.44983 -0.66467285" fill-rule="evenodd"/><path fill="#000000" stroke="#000000" stroke-width="4.0" stroke-linecap="butt" d="m669.7064 401.68735l18.091858 -6.7709045l-18.211426 -6.4424133z" fill-rule="evenodd"/></g></svg>